<svg xmlns="http://www.w3.org/2000/svg" data-name="Layer 1" viewBox="0 0 64 64"><path fill="#398ecc" d="M7 62V51.228l13.065 2.613a67.642 67.642 0 0 0 23.953.464L57 52.228V62"/><path fill="#ff9e9e" d="M56 47.772a5.997 5.997 0 0 0-5.005-5.911c0-.03.005-.06.005-.09a5.993 5.993 0 0 0-9.667-4.74A5.986 5.986 0 0 0 32 35.308 5.983 5.983 0 0 0 22.685 37 5.968 5.968 0 0 0 19 35.728l.047.048c-.016 0-.03-.004-.047-.004a6 6 0 0 0-6 6c0 .03.004.059.005.09a5.986 5.986 0 0 0-3.824 9.473c-.026.104-.04.212-.06.317L32 56l22.986-3.45a6.11 6.11 0 0 0-.166-1.215A5.965 5.965 0 0 0 56 47.772z"/><path fill="#ffe35b" d="M39.9 15a8 8 0 1 0-14.062 5.213A8.005 8.005 0 0 1 27.9 25.42V26h8v-.583a7.885 7.885 0 0 1 2.032-5.17A7.95 7.95 0 0 0 39.899 15z"/><path d="M57.649 51.468a.988.988 0 0 0-.807-.227l-.862.138a6.965 6.965 0 0 0-4.016-10.321A7.01 7.01 0 0 0 45 34.77v-.043a6.953 6.953 0 0 0-3.382.876A6.98 6.98 0 0 0 32 34.034a6.98 6.98 0 0 0-9.617 1.569A6.916 6.916 0 0 0 19 34.729a.919.919 0 0 0-.294.048 7.011 7.011 0 0 0-6.67 6.28 6.934 6.934 0 0 0-4.538 9.251l-.302-.06a1 1 0 0 0-1.196.98V62h2v-9.552l11.87 2.374a68.416 68.416 0 0 0 24.306.47L56 53.403V62h2v-9.771a.999.999 0 0 0-.351-.761zM31 42.308a7.005 7.005 0 0 0-6 6.92h2a5.008 5.008 0 0 1 4-4.898v9.773a66.705 66.705 0 0 1-10.738-1.242l-.883-.176A7.007 7.007 0 0 0 21 48.229h-2a5.02 5.02 0 0 1-1.982 3.983l-7.001-1.4c-.015-.023-.016-.05-.033-.073a4.985 4.985 0 0 1 3.185-7.891A1.095 1.095 0 0 0 14 41.77a5.006 5.006 0 0 1 4.961-5 .9.9 0 0 0 .345-.034 4.944 4.944 0 0 1 2.764 1.051 1 1 0 0 0 1.501-.324A4.946 4.946 0 0 1 31 35.805zm23.016 8.431a1 1 0 0 0-.167.835c.01.044.01.098.019.143l-6.024.97-.343-.126a5.02 5.02 0 0 1-2.5-4.332h-2a7.022 7.022 0 0 0 2.012 4.905l-1.153.184a66.539 66.539 0 0 1-10.86.826v-4.027a6.976 6.976 0 0 0 5 2.112v-2a5.006 5.006 0 0 1-5-5v-9.424a4.934 4.934 0 0 1 7.022 1.01A6.976 6.976 0 0 0 38 41.73h2a4.972 4.972 0 0 1 1.887-3.881c.018-.012.04-.014.058-.028a4.994 4.994 0 0 1 8.056 3.921 7.644 7.644 0 0 0-.005.104 1 1 0 0 0 .835 1.003 4.985 4.985 0 0 1 3.185 7.891z"/><path d="M22.284 57.403a11.477 11.477 0 0 1-8.566.001l-.345-.138-.746 1.855.346.14a13.486 13.486 0 0 0 10.055-.001l.345-.139-.746-1.855zM51.284 57.403a11.477 11.477 0 0 1-8.566.001l-.345-.138-.746 1.855.346.14a13.486 13.486 0 0 0 10.055-.001l.345-.139-.746-1.855zM36.9 26v-.583a6.911 6.911 0 0 1 1.784-4.51 8.999 8.999 0 0 0-7.808-14.85 8.992 8.992 0 0 0-5.794 14.81 6.967 6.967 0 0 1 1.817 4.553V26a1 1 0 0 0 1 1h8a1 1 0 0 0 1-1zm-8.011-1a9.016 9.016 0 0 0-2.294-5.44 6.937 6.937 0 0 1-1.607-5.689 7.049 7.049 0 0 1 6.108-5.826 6.94 6.94 0 0 1 5.47 1.738 6.99 6.99 0 0 1 .612 9.807A8.983 8.983 0 0 0 34.91 25zM29 29h6v2h-6z"/><path d="M26.9 14.9h2a2.002 2.002 0 0 1 2-2v-2a4.004 4.004 0 0 0-4 4zM43 14h3v2h-3z"/><path d="M22.06 4.56h2v3h-2z" transform="rotate(-45 23.06 6.06)"/><path d="M39.238 5.06h3v2h-3z" transform="rotate(-45 40.738 6.06)"/><path d="M31 1.5h2v3h-2zM18 14h3v2h-3zM58 2h2v2h-2zM60 4h2v2h-2zM56 4h2v2h-2zM58 6h2v2h-2zM4 2h2v2H4zM6 4h2v2H6zM2 4h2v2H2zM4 6h2v2H4z"/></svg>