<svg xmlns="http://www.w3.org/2000/svg" enable-background="new 0 0 64 64" viewBox="0 0 64 64"><switch><g><path fill="#7c7874" d="M25.5,46h13c1.4,0,2.5,1.1,2.5,2.5l0,0c0,1.4-1.1,2.5-2.5,2.5h-13c-1.4,0-2.5-1.1-2.5-2.5l0,0
					C23,47.1,24.1,46,25.5,46z"/><path fill="#0f283a" d="M38.5,52h-13c-1.9,0-3.5-1.6-3.5-3.5s1.6-3.5,3.5-3.5h13c1.9,0,3.5,1.6,3.5,3.5S40.4,52,38.5,52z M25.5,47
					c-0.8,0-1.5,0.7-1.5,1.5s0.7,1.5,1.5,1.5h13c0.8,0,1.5-0.7,1.5-1.5S39.3,47,38.5,47H25.5z"/><path fill="#7c7874" d="M26.5,51h11c1.4,0,2.5,1.1,2.5,2.5l0,0c0,1.4-1.1,2.5-2.5,2.5h-11c-1.4,0-2.5-1.1-2.5-2.5l0,0
					C24,52.1,25.1,51,26.5,51z"/><path fill="#0f283a" d="M37.5,57h-11c-1.9,0-3.5-1.6-3.5-3.5s1.6-3.5,3.5-3.5h11c1.9,0,3.5,1.6,3.5,3.5S39.4,57,37.5,57z M26.5,52
					c-0.8,0-1.5,0.7-1.5,1.5s0.7,1.5,1.5,1.5h11c0.8,0,1.5-0.7,1.5-1.5S38.3,52,37.5,52H26.5z"/><path fill="#7c7874" d="M25.4,41h13.3c1.3,0,2.4,1.1,2.4,2.4v0.3c0,1.3-1.1,2.4-2.4,2.4H25.4c-1.3,0-2.4-1.1-2.4-2.4v-0.3
					C23,42.1,24.1,41,25.4,41z"/><path fill="#0f283a" d="M38.6,47H25.4c-1.9,0-3.4-1.5-3.4-3.4v-0.3c0-1.9,1.5-3.4,3.4-3.4h13.3c1.9,0,3.4,1.5,3.4,3.4v0.3
					C42,45.5,40.5,47,38.6,47z M25.4,42c-0.8,0-1.4,0.6-1.4,1.4v0.3c0,0.8,0.6,1.4,1.4,1.4h13.3c0.8,0,1.4-0.6,1.4-1.4v-0.3
					c0-0.8-0.6-1.4-1.4-1.4H25.4z"/><path fill="#56524f" d="M28,56h8l0,0l0,0c0,2.2-1.8,4-4,4l0,0C29.8,60,28,58.2,28,56L28,56L28,56z"/><path fill="#0f283a" d="M32,61c-2.8,0-5-2.2-5-5c0-0.6,0.4-1,1-1h8c0.6,0,1,0.4,1,1C37,58.8,34.8,61,32,61z M29.2,57
					c0.4,1.2,1.5,2,2.8,2s2.4-0.8,2.8-2H29.2z"/><g><path fill="#fcaa35" d="M49,21c0-9.4-7.6-17-17-17c-9.4,0-17,7.6-17,17c0,4.8,2,9.4,5.6,12.6c2.1,1.9,3.4,4.6,3.4,7.4l0,0h16v-0.2
					c0-2.7,1.2-5.3,3.3-7.1C46.9,30.5,49,25.9,49,21z"/><path fill="#0f283a" d="M40,42H24c-0.5,0-1-0.4-1-1c0-2.5-1.1-5-3.1-6.7C16.2,30.9,14,26.1,14,21c0-9.9,8.1-18,18-18c0,0,0,0,0,0
					c9.9,0,18,8.1,18,18v0c0,5.1-2.2,10-6,13.4c-1.9,1.6-2.9,3.9-3,6.3V41C41,41.6,40.6,42,40,42z M24.9,40H39
					c0.2-2.7,1.5-5.3,3.6-7.1C46,29.9,48,25.6,48,21v0c0-8.8-7.2-16-16-16c0,0,0,0,0,0c-8.8,0-16,7.2-16,16c0,4.5,1.9,8.8,5.3,11.9
					C23.4,34.7,24.7,37.3,24.9,40z"/></g><g><path fill="#fdf2dd" d="M43.5,28c-0.2,0-0.3,0-0.5-0.1c-0.5-0.3-0.7-0.9-0.4-1.3c2.6-5,1.3-11.2-3-14.8c-0.4-0.4-0.5-1-0.1-1.4
					c0.4-0.4,1-0.5,1.4-0.1c5,4.2,6.5,11.4,3.5,17.2C44.2,27.8,43.9,28,43.5,28z"/></g><g><path fill="#fdf2dd" d="M37,10c-0.1,0-0.3,0-0.4-0.1c-0.3-0.1-0.6-0.2-0.9-0.3c-0.5-0.2-0.8-0.7-0.6-1.3c0.2-0.5,0.7-0.8,1.3-0.6
					c0.4,0.1,0.7,0.2,1.1,0.4c0.5,0.2,0.7,0.8,0.5,1.3C37.8,9.8,37.4,10,37,10z"/></g><g><path fill="#0f283a" d="M32,42c-0.1,0-0.2,0-0.3,0c-0.5-0.1-0.8-0.7-0.7-1.2l2.7-9.7H29c-0.3,0-0.6-0.1-0.8-0.4
					C28,30.4,28,30,28,29.7l3-11c0.1-0.5,0.7-0.8,1.2-0.7c0.5,0.1,0.8,0.7,0.7,1.2L30.3,29H35c0.3,0,0.6,0.1,0.8,0.4S36,30,36,30.3
					l-3,11C32.8,41.7,32.4,42,32,42z"/></g></g></switch></svg>