<svg xmlns="http://www.w3.org/2000/svg" xmlns:xlink="http://www.w3.org/1999/xlink" data-name="Layer 1" viewBox="0 0 64 64"><defs><linearGradient id="b" x1="32" x2="32" y1="11" y2="55" gradientUnits="userSpaceOnUse"><stop offset="0" stop-color="#ffd270"/><stop offset="1" stop-color="#f79f63"/></linearGradient><linearGradient id="a" x1="32" x2="32" y1="55" y2="59" gradientUnits="userSpaceOnUse"><stop offset="0" stop-color="#e4e9f4"/><stop offset="1" stop-color="#bccbe2"/></linearGradient><linearGradient id="c" y1="59" y2="63" xlink:href="#a"/></defs><path fill="url(#b)" d="M39,52.329V55H25V52.411A4.043,4.043,0,0,0,22.865,48.8a20,20,0,1,1,18.276,0A3.971,3.971,0,0,0,39,52.329Z"/><rect width="18" height="4" x="23" y="55" fill="url(#a)" rx="2"/><rect width="14" height="4" x="25" y="59" fill="url(#c)" rx="2"/><path fill="#50373b" d="M32 8a1 1 0 0 0 1-1V1a1 1 0 0 0-2 0V7A1 1 0 0 0 32 8zM14.293 14.707a1 1 0 0 0 1.414-1.414l-5-5A1 1 0 0 0 9.293 9.707zM49 15a1 1 0 0 0 .707-.293l5-5a1 1 0 0 0-1.414-1.414l-5 5A1 1 0 0 0 49 15zM14.293 47.293l-5 5a1 1 0 1 0 1.414 1.414l5-5a1 1 0 0 0-1.414-1.414zM49.707 47.293a1 1 0 0 0-1.414 1.414l5 5a1 1 0 0 0 1.414-1.414zM8 30H2a1 1 0 0 0 0 2H8a1 1 0 0 0 0-2zM62 30.011H56a1 1 0 1 0 0 2h6a1 1 0 0 0 0-2z"/><path fill="#50373b" d="M41.6,49.679A20.931,20.931,0,0,0,53,31a20.184,20.184,0,0,0-.1-2.1,1,1,0,1,0-1.989.208A18.121,18.121,0,0,1,51,31,18.941,18.941,0,0,1,40.682,47.9,4.955,4.955,0,0,0,38,52.33V54H36V42h3a5,5,0,1,0-5-5v3H30V37a5,5,0,1,0-5,5h3V54H26V52.41a5.06,5.06,0,0,0-2.673-4.5A19,19,0,1,1,48.681,21.917a1,1,0,1,0,1.757-.954,20.812,20.812,0,0,0-19.6-10.932A21,21,0,0,0,22.415,49.69,3.047,3.047,0,0,1,24,52.41v1.774a2.983,2.983,0,0,0,.22,5.7A2.99,2.99,0,0,0,27,64H37a2.99,2.99,0,0,0,2.78-4.116,2.983,2.983,0,0,0,.22-5.7V52.33A2.962,2.962,0,0,1,41.6,49.679ZM36,37a3,3,0,1,1,3,3H36ZM25,40a3,3,0,1,1,3-3v3Zm5,2h4V54H30Zm7,20H27a1,1,0,0,1,0-2H37a1,1,0,0,1,0,2Zm2-4H25a1,1,0,0,1,0-2H39a1,1,0,0,1,0,2Z"/><path fill="#50373b" d="M51.38,24.08a.646.646,0,0,0-.18-.06A.993.993,0,0,0,50,25a1,1,0,0,0,.08.38,1.032,1.032,0,0,0,.21.33A1.05,1.05,0,0,0,51,26a1.033,1.033,0,0,0,.71-.29,1.014,1.014,0,0,0,0-1.42,1.712,1.712,0,0,0-.15-.12A.776.776,0,0,0,51.38,24.08Z"/></svg>