<svg id="Layer_5" enable-background="new 0 0 64 64" height="512" viewBox="0 0 64 64" width="512" xmlns="http://www.w3.org/2000/svg"><g><g><g><path d="m50 6v4h-36v-4c0-2.21 1.79-4 4-4h28c2.21 0 4 1.79 4 4z" fill="#969faa"/></g><g><path d="m50 52v6c0 2.21-1.79 4-4 4h-28c-2.21 0-4-1.79-4-4v-6c0 2.21 1.79 4 4 4h28c2.21 0 4-1.79 4-4z" fill="#969faa"/></g><g><path d="m14 10v42c0 2.21 1.79 4 4 4h28c2.21 0 4-1.79 4-4v-42z" fill="#69d6f4"/></g><g><path d="m62 16v2h-34v-2c0-1.1.9-2 2-2h20 10c1.1 0 2 .9 2 2z" fill="#b4dd7f"/></g><g><path d="m62 22v14c0 1.1-.9 2-2 2h-10-20c-1.1 0-2-.9-2-2v-14z" fill="#b4dd7f"/></g><g><path d="m28 18h34v4h-34z" fill="#e6e9ed"/></g><g><path d="m44 49v2c0 .55-.45 1-1 1h-.59c-.26 0-.52-.11-.7-.29l-1.71-1.71 1.71-1.71c.18-.18.44-.29.7-.29h.59c.55 0 1 .45 1 1z" fill="#fcd770"/></g><g><path d="m39 28c1.66 0 3 1.34 3 3s-1.34 3-3 3c-.77 0-1.46-.3-1.99-.78.61-.54.99-1.34.99-2.22s-.38-1.68-.99-2.22c.53-.48 1.22-.78 1.99-.78z" fill="#ff826e"/></g><g><path d="m37.01 28.78c.61.54.99 1.34.99 2.22s-.38 1.68-.99 2.22c0 .01-.01 0-.01 0-.53.49-1.23.78-2 .78-1.66 0-3-1.34-3-3s1.34-3 3-3c.77 0 1.47.29 2 .78 0 0 .01-.01.01 0z" fill="#e6e9ed"/></g><g><path d="m34 49v2c0 .55-.45 1-1 1h-2c-.55 0-1-.45-1-1v-2c0-.55.45-1 1-1h2c.55 0 1 .45 1 1z" fill="#fcd770"/></g><g><path d="m24 50-1.71 1.71c-.18.18-.44.29-.7.29h-.59c-.55 0-1-.45-1-1v-2c0-.55.45-1 1-1h.59c.26 0 .52.11.7.29z" fill="#fcd770"/></g><g><path d="m14 22.2c4.56.93 8 4.97 8 9.8s-3.44 8.87-8 9.8c-.64.13-1.31.2-2 .2-5.52 0-10-4.48-10-10s4.48-10 10-10c.69 0 1.36.07 2 .2z" fill="#fcd770"/></g></g><g><path d="m31 5h6v2h-6z"/><path d="m27 5h2v2h-2z"/><path d="m21.586 47h-.586c-1.103 0-2 .897-2 2v2c0 1.103.897 2 2 2h.586c.526 0 1.042-.214 1.414-.586l2.414-2.414-2.414-2.414c-.372-.372-.888-.586-1.414-.586zm0 4h-.586v-2h.586l1 1z"/><path d="m29 49v2c0 1.103.897 2 2 2h2c1.103 0 2-.897 2-2v-2c0-1.103-.897-2-2-2h-2c-1.103 0-2 .897-2 2zm2 0h2l.002 2h-2.002z"/><path d="m42.414 53h.586c1.103 0 2-.897 2-2v-2c0-1.103-.897-2-2-2h-.586c-.526 0-1.042.214-1.414.586l-2.414 2.414 2.414 2.414c.372.372.888.586 1.414.586zm0-4h.586l.002 2h-.588l-1-1z"/><path d="m13 29c.552 0 1 .448 1 1h2c0-1.654-1.346-3-3-3v-2h-2v2h-3v3c0 1.654 1.346 3 3 3h2c.552 0 1 .448 1 1v1h-3c-.552 0-1-.448-1-1h-2c0 1.654 1.346 3 3 3v2h2v-2h3v-3c0-1.654-1.346-3-3-3h-2c-.552 0-1-.448-1-1v-1z"/><path d="m60 13h-9v-7c0-2.757-2.243-5-5-5h-28c-2.757 0-5 2.243-5 5v15.051c-.33-.03-.662-.051-1-.051-6.065 0-11 4.935-11 11s4.935 11 11 11c.338 0 .67-.021 1-.051v15.051c0 2.757 2.243 5 5 5h28c2.757 0 5-2.243 5-5v-19h9c1.654 0 3-1.346 3-3v-20c0-1.654-1.346-3-3-3zm1 3v1h-32v-1c0-.552.448-1 1-1h30c.552 0 1 .448 1 1zm-32 3h32v2h-32zm-11-16h28c1.654 0 3 1.346 3 3v3h-34v-3c0-1.654 1.346-3 3-3zm-15 29c0-4.963 4.037-9 9-9s9 4.037 9 9-4.037 9-9 9-9-4.037-9-9zm43 29h-28c-1.654 0-3-1.346-3-3v-2.026c.838.635 1.87 1.026 3 1.026h28c1.13 0 2.162-.391 3-1.026v2.026c0 1.654-1.346 3-3 3zm3-9c0 1.654-1.346 3-3 3h-28c-1.654 0-3-1.346-3-3v-9.426c4.61-1.31 8-5.549 8-10.574s-3.39-9.263-8-10.574v-10.426h34v2h-19c-1.654 0-3 1.346-3 3v20c0 1.654 1.346 3 3 3h19zm11-15h-30c-.552 0-1-.448-1-1v-13h32v13c0 .552-.448 1-1 1z"/><path d="m39 27c-.707 0-1.395.198-2.002.555-.591-.344-1.267-.555-1.998-.555-2.206 0-4 1.794-4 4s1.794 4 4 4c.731 0 1.407-.211 1.998-.555.607.357 1.295.555 2.002.555 2.206 0 4-1.794 4-4s-1.794-4-4-4zm-6 4c0-1.103.897-2 2-2s2 .897 2 2-.897 2-2 2-2-.897-2-2zm6 2c-.175 0-.346-.032-.513-.079.317-.572.513-1.221.513-1.921s-.196-1.349-.513-1.921c.167-.047.338-.079.513-.079 1.103 0 2 .897 2 2s-.897 2-2 2z"/><path d="m53 33h2v2h-2z"/><path d="m57 33h2v2h-2z"/><path d="m49 33h2v2h-2z"/><path d="m49 29h10v2h-10z"/></g></g></svg>